<?xml version="1.0" ?>
<svg height="250px" version="1.1" viewBox="0 0 250 250" width="250px" xmlns="http://www.w3.org/2000/svg"
>
    <title/>
    <desc/>
    <defs/>
    <g fill="none" fill-rule="evenodd" id="Page-1" stroke="none" stroke-width="1">
        <g fill-rule="nonzero" id="check-square">
            <path d="M206.79,81.505 C203.477,81.505 200.79,84.192 200.79,87.505 L200.79,237.424 L12,237.424 L12,48.635 L158.792,48.635 C162.106,48.635 164.792,45.948 164.792,42.635 C164.792,39.322 162.106,36.635 158.792,36.635 L6,36.635 C2.687,36.635 0,39.322 0,42.635 L0,243.424 C0,246.737 2.687,249.424 6,249.424 L206.79,249.424 C210.103,249.424 212.79,246.737 212.79,243.424 L212.79,87.505 C212.79,84.192 210.103,81.505 206.79,81.505 Z"
                  fill="#000000" id="Shape"/>
            <path d="M247.667,1.758 C245.324,-0.585 241.525,-0.587 239.182,1.758 L80.416,160.523 L41.023,121.13 C38.68,118.786 34.88,118.786 32.538,121.13 C30.195,123.473 30.195,127.272 32.538,129.614 L76.174,173.25 C77.345,174.422 78.881,175.008 80.417,175.008 C81.953,175.008 83.488,174.422 84.66,173.25 L247.667,10.243 C250.011,7.9 250.011,4.101 247.667,1.758 Z"
                  fill="#228B22" id="Shape"/>
        </g>
    </g>
</svg>